<svg width="40" height="42" viewBox="0 0 40 42" fill="none" xmlns="http://www.w3.org/2000/svg">
<path d="M31.2534 27.2758C30.7908 27.2758 30.4153 27.6513 30.4153 28.114V40.2698H28.0789V32.9673C28.0789 32.5047 27.7034 32.1292 27.2407 32.1292C26.7781 32.1292 26.4026 32.5047 26.4026 32.9673V41.1083C26.4026 41.571 26.7781 41.9465 27.2407 41.9465H31.2534C31.7161 41.9465 32.0916 41.571 32.0916 41.1083V28.114C32.0916 27.6513 31.7165 27.2758 31.2534 27.2758Z" fill="#E5CF7E"/>
<path d="M23.7163 34.6976C23.2536 34.6976 22.8782 35.0731 22.8782 35.5358V40.2697H20.5418V37.8001C20.5418 37.3374 20.1663 36.9619 19.7036 36.9619C19.241 36.9619 18.8655 37.3374 18.8655 37.8001V41.1079C18.8655 41.5705 19.241 41.946 19.7036 41.946H23.7163C24.179 41.946 24.5545 41.5705 24.5545 41.1079V35.5358C24.5545 35.0731 24.179 34.6976 23.7163 34.6976Z" fill="#E5CF7E"/>
<path d="M39.5486 10.9842C39.686 10.6875 39.6382 10.3388 39.427 10.0898L31.1481 0.334534C30.8296 -0.0409599 30.1884 -0.0409599 29.8699 0.334534L21.5915 10.0898C21.3803 10.3388 21.3325 10.6879 21.4699 10.9842C21.607 11.2804 21.9041 11.4703 22.2306 11.4703H27.0868C26.4142 18.1152 22.2796 23.8893 16.1309 26.677C15.7093 26.8681 15.5224 27.3647 15.7135 27.7863C15.9046 28.2079 16.402 28.3944 16.8228 28.2037C23.8143 25.0342 28.4145 18.3184 28.829 10.6778C28.8415 10.4482 28.759 10.2231 28.6006 10.0559C28.4421 9.88911 28.2221 9.79397 27.9921 9.79397H24.041L30.5095 2.17219L36.9779 9.79397H33.0264C32.7989 9.79397 32.581 9.88659 32.423 10.0505C32.265 10.2147 32.1803 10.4356 32.1891 10.6631C32.6304 22.4883 24.6013 33.1484 13.0967 36.0098C12.6475 36.1217 12.3738 36.5764 12.4857 37.0257C12.5809 37.4071 12.9224 37.6619 13.2983 37.6619C13.3654 37.6619 13.4333 37.6535 13.5012 37.6367C25.4885 34.6545 33.9388 23.7338 33.8818 11.4699H38.7879C39.1148 11.4703 39.4115 11.2804 39.5486 10.9842Z" fill="#E5CF7E"/>
<path d="M6.91322 11.7211C8.95413 11.7211 10.6145 10.0654 10.6145 8.0299C10.6145 5.99444 8.95413 4.33824 6.91322 4.33824C4.8723 4.33824 3.21191 5.99444 3.21191 8.0299C3.21191 10.0654 4.8723 11.7211 6.91322 11.7211ZM6.91322 6.01456C8.03006 6.01456 8.9382 6.91851 8.9382 8.0299C8.9382 9.1413 8.03006 10.0448 6.91322 10.0448C5.79637 10.0448 4.88823 9.14088 4.88823 8.0299C4.88823 6.91893 5.79637 6.01456 6.91322 6.01456Z" fill="#E5CF7E"/>
<path d="M13.7913 24.9589V16.2132C13.7913 14.7481 12.5965 13.5567 11.1285 13.5567H8.48574C8.1048 13.5567 7.77205 13.8131 7.67525 14.1815L6.92929 17.0166L6.21518 14.1895C6.1213 13.8173 5.78646 13.5567 5.40258 13.5567H2.82274C1.35429 13.5567 0.159912 14.7485 0.159912 16.2132V24.969C0.159912 25.7527 0.658196 26.4521 1.39955 26.7086L3.07502 27.2894L3.55864 41.1379C3.57414 41.5892 3.94461 41.9467 4.39638 41.9467H9.43077C9.88253 41.9467 10.2526 41.5888 10.2685 41.1379L10.7513 27.2974L12.5303 26.7065C13.2842 26.4551 13.7913 25.7531 13.7913 24.9589ZM12.115 24.9589C12.115 25.0298 12.0689 25.0926 12.0006 25.1157L9.6688 25.8901C9.33647 26.0008 9.10766 26.3063 9.0955 26.6562L8.61985 40.2704H5.20478L4.72954 26.6562C4.71739 26.3101 4.4936 26.0071 4.1663 25.8935L1.9477 25.1245C1.88065 25.1014 1.83539 25.0386 1.83539 24.969V16.2132C1.83539 15.6726 2.27793 15.233 2.8219 15.233H4.74924L6.09951 20.5783C6.19297 20.9488 6.52571 21.2094 6.90791 21.2111C7.28089 21.1944 7.62496 20.9559 7.7226 20.5863L9.13154 15.233H11.1285C11.6724 15.233 12.115 15.6726 12.115 16.2132V24.9589Z" fill="#E5CF7E"/>
<path d="M38.7893 22.5443H34.7766C34.314 22.5443 33.9385 22.9198 33.9385 23.3824V41.1082C33.9385 41.5708 34.314 41.9463 34.7766 41.9463H38.7893C39.252 41.9463 39.6275 41.5708 39.6275 41.1082V23.3824C39.6275 22.9193 39.2524 22.5443 38.7893 22.5443ZM37.9512 40.27H35.6148V24.2206H37.9512V40.27Z" fill="#E5CF7E"/>
</svg>
